# xmcd CD database file
#
# Track frame offsets:
#	150
#	21463
#	36925
#	66597
#	85402
#	105879
#	127749
#	145022
#	165081
#	187787
#	205199
#	221636
#
# Disc length: 3085 seconds
#
# Revision: 0
# Processed by: cddbd v1.5.2PL0 Copyright (c) Steve Scherf et al.
# Submitted via: jetAudio 7
#
DISCID=9c0c0b0c
DTITLE=布仁巴雅爾 - Horizon
DYEAR=2005
DGENRE=Folk
TTITLE0=天邊
TTITLE1=吉祥三寳
TTITLE2=父親的草原母親的河
TTITLE3=阿爾斯楞的眼睛
TTITLE4=牧歌
TTITLE5=迷人的杭蓋
TTITLE6=藍色的蒙古高原
TTITLE7=母親
TTITLE8=呼倫貝爾大草原
TTITLE9=努力格日瑪
TTITLE10=我和草原有個約定
TTITLE11=布裏亞特蒙古族舞曲
EXTD=YEAR: 2005
EXTT0=
EXTT1=
EXTT2=
EXTT3=
EXTT4=
EXTT5=
EXTT6=
EXTT7=
EXTT8=
EXTT9=
EXTT10=
EXTT11=
PLAYORDER=
